<?xml version="1.0" encoding="UTF-8" standalone="no"?>
<!-- Created with Inkscape (http://www.inkscape.org/) -->

<svg
   version="1.1"
   id="svg3638"
   xml:space="preserve"
   width="800"
   height="800"
   viewBox="0 0 800 800"
   sodipodi:docname="small-dog-silhouette-pdv.svg"
   inkscape:version="1.1.2 (b8e25be833, 2022-02-05)"
   xmlns:inkscape="http://www.inkscape.org/namespaces/inkscape"
   xmlns:sodipodi="http://sodipodi.sourceforge.net/DTD/sodipodi-0.dtd"
   xmlns="http://www.w3.org/2000/svg"
   xmlns:svg="http://www.w3.org/2000/svg"><defs
     id="defs3642"><clipPath
       clipPathUnits="userSpaceOnUse"
       id="clipPath3652"><path
         d="M 0,600 H 600 V 0 H 0 Z"
         id="path3650" /></clipPath></defs><sodipodi:namedview
     id="namedview3640"
     pagecolor="#ffffff"
     bordercolor="#666666"
     borderopacity="1.0"
     inkscape:pageshadow="2"
     inkscape:pageopacity="0.0"
     inkscape:pagecheckerboard="0"
     showgrid="false"
     inkscape:zoom="1.03875"
     inkscape:cx="400"
     inkscape:cy="400"
     inkscape:window-width="1920"
     inkscape:window-height="1018"
     inkscape:window-x="-8"
     inkscape:window-y="-8"
     inkscape:window-maximized="1"
     inkscape:current-layer="g3644" /><g
     id="g3644"
     inkscape:groupmode="layer"
     inkscape:label="small-dog-silhouette-pdv"
     transform="matrix(1.3333333,0,0,-1.3333333,0,800)"><g
       id="g3646"><g
         id="g3648"
         clip-path="url(#clipPath3652)"><path
           d="m 569.023,519.769 c 8.788,12.534 18.686,36.655 16.928,41.236 -0.918,2.403 -2.935,2.778 -9.484,1.768 -3.856,-0.596 -7.196,-1.24 -10.524,-2.122 l 1.306,-43.47 c 0.571,0.849 1.165,1.715 1.774,2.588"
           style="fill:#d71a00;fill-opacity:1;fill-rule:nonzero;stroke:none"
           id="path3654" /><path
           d="m 542.334,551.077 c -3.174,-1.559 -6.705,-3.343 -10.708,-5.395 l -22.823,-11.702 -0.121,0.025 8.042,-65.989 z"
           style="fill:#e72d00;fill-opacity:1;fill-rule:nonzero;stroke:none"
           id="path3656" /><path
           d="m 530.089,471.917 c -0.945,2.503 -1.407,4.944 -0.884,7.194 1.672,7.222 4.07,13.776 5.34,14.58 1.259,0.805 5.635,1.475 9.717,1.492 7.257,0.028 17.041,6.689 17.041,11.598 0,0.922 2.549,5.341 5.946,10.4 l -1.306,43.47 c -6.605,-1.751 -13.162,-4.441 -23.609,-9.574 l -25.61,-83.061 z"
           style="fill:#ec3000;fill-opacity:1;fill-rule:nonzero;stroke:none"
           id="path3658" /><path
           d="m 523.356,426.611 c 3.912,2.063 6.888,4.916 10.226,8.9 4.455,5.312 6.916,12.024 4.443,20.312 -1.415,4.754 -5.851,10.575 -7.936,16.094 l -13.365,-3.901 z"
           style="fill:#ef6f00;fill-opacity:1;fill-rule:nonzero;stroke:none"
           id="path3660" /><path
           d="m 508.682,534.005 -16.512,3.275 c -13.826,2.744 -18.498,2.914 -27.67,1.009 l -11.032,-2.29 -9.206,7.483 c -1.643,1.336 -3.756,3.119 -6.085,5.123 l -28.068,-40.843 c 1.384,-0.668 2.834,-1.261 4.333,-1.757 5.477,-1.825 10.058,-4.649 10.556,-6.514 0.176,-0.649 0.342,-1.269 0.5,-1.867 l 91.226,-29.608 z"
           style="fill:#f35900;fill-opacity:1;fill-rule:nonzero;stroke:none"
           id="path3662" /><path
           d="m 436.279,276.628 c 0.424,0.74 0.899,1.532 1.415,2.365 l -4.54,-1.488 z"
           style="fill:#d7f038;fill-opacity:1;fill-rule:nonzero;stroke:none"
           id="path3664" /><path
           d="m 434.686,273.556 c 0.098,0.212 0.197,0.422 0.294,0.628 0.346,0.72 0.786,1.544 1.299,2.444 l -3.125,0.877 z"
           style="fill:#c7ed5e;fill-opacity:1;fill-rule:nonzero;stroke:none"
           id="path3666" /><path
           d="m 423.11,562.014 c -6.062,5.608 -13.731,10.996 -20.415,14.65 l 4.154,-67.116 c 1.034,-0.64 2.124,-1.238 3.26,-1.786 l 28.068,40.843 c -4.845,4.17 -10.629,9.305 -15.067,13.409"
           style="fill:#ed5200;fill-opacity:1;fill-rule:nonzero;stroke:none"
           id="path3668" /><path
           d="m 457.647,95.07 -3.743,-4.881 c 3.141,1.004 4.382,2.585 3.743,4.881"
           style="fill:#77ac56;fill-opacity:1;fill-rule:nonzero;stroke:none"
           id="path3670" /><path
           d="m 433.154,277.505 38.002,50.281 c 1.516,4.595 2.249,9.328 2.652,15.088 0.647,9.23 2.692,18.651 5.317,24.468 5.607,12.443 11.61,30.125 11.668,34.387 0.01,0.713 0.792,3.368 1.959,6.529 l -93.857,16.852 z"
           style="fill:#f7c900;fill-opacity:1;fill-rule:nonzero;stroke:none"
           id="path3672" /><path
           d="m 437.694,278.993 c 3.16,5.083 7.91,11.648 12.202,16.722 12.337,14.606 18.295,23.075 21.26,32.071 l -38.002,-50.281 z"
           style="fill:#f1e800;fill-opacity:1;fill-rule:nonzero;stroke:none"
           id="path3674" /><path
           d="m 398.895,425.11 93.857,-16.852 c 2.037,5.518 5.247,12.582 7.576,13.562 11.205,0.748 17.915,2.094 23.028,4.791 l -6.632,41.405 z"
           style="fill:#f59500;fill-opacity:1;fill-rule:nonzero;stroke:none"
           id="path3676" /><path
           d="m 516.724,468.016 -91.226,29.608 c 3.512,-13.258 2.736,-14.707 -12.115,-37.663 -4.761,-7.357 -7.612,-11.281 -12.26,-13.854 l -2.228,-20.997 z"
           style="fill:#f78b00;fill-opacity:1;fill-rule:nonzero;stroke:none"
           id="path3678" /><path
           d="m 432.006,266.763 c 0.853,2.502 1.748,4.775 2.68,6.793 l -1.532,3.949 z"
           style="fill:#cceb30;fill-opacity:1;fill-rule:nonzero;stroke:none"
           id="path3680" /><path
           d="m 406.016,92.765 c 4.904,-2.851 13.003,-3.469 26.114,-2.528 1.61,0.114 5.578,-0.244 8.804,-0.799 3.226,-0.549 8.515,-0.369 11.74,0.409 0.44,0.105 0.847,0.219 1.23,0.342 l 3.743,4.881 c -0.382,1.378 -1.44,3.013 -3.17,4.936 -4.387,4.874 -3.311,7.137 4.07,8.519 4.41,0.828 6.848,2.393 6.848,4.394 0,2.624 -3.467,6.812 -7.679,10.284 l -51.457,-8.033 z"
           style="fill:#92c73e;fill-opacity:1;fill-rule:nonzero;stroke:none"
           id="path3682" /><path
           d="m 457.716,123.203 c -4.039,3.33 -8.762,6.002 -11.765,6.002 -9.167,0 -14.967,6.43 -19.847,22.014 -2.983,9.516 -3.978,14.861 -4.122,28.329 L 406.259,115.17 Z"
           style="fill:#a1da35;fill-opacity:1;fill-rule:nonzero;stroke:none"
           id="path3684" /><path
           d="M 433.154,277.505 398.895,425.11 324.932,307.922 Z"
           style="fill:#f7c600;fill-opacity:1;fill-rule:nonzero;stroke:none"
           id="path3686" /><path
           d="m 317.847,280.541 c 3.66,-1.073 7.237,-2.242 11.016,-3.568 14.457,-5.068 15.239,-5.658 17.178,-12.846 1.117,-4.139 2.817,-8.016 3.775,-8.611 2.131,-1.321 12.189,-31.457 17.664,-52.965 0.97,-3.809 2.194,-9.587 3.434,-16.083 l 51.052,-1.774 c 10e-4,0.501 0.003,1.011 0.007,1.533 l -97.041,121.695 z"
           style="fill:#e8cf00;fill-opacity:1;fill-rule:nonzero;stroke:none"
           id="path3688" /><path
           d="m 324.932,307.922 97.041,-121.695 c 0.013,2.58 0.045,5.41 0.089,8.546 0.389,28.042 4.209,55.156 9.944,71.99 l 1.148,10.742 z"
           style="fill:#eee100;fill-opacity:1;fill-rule:nonzero;stroke:none"
           id="path3690" /><path
           d="m 390.032,581.334 c -5.901,0 -7.114,-5.228 -4.003,-17.24 1.668,-6.439 3.039,-14.257 3.039,-17.375 0,-3.112 1.758,-9.115 3.912,-13.339 2.155,-4.223 3.912,-9.133 3.912,-10.912 0,-4.276 4.038,-9.257 9.957,-12.92 l -4.154,67.116 c -5.246,2.868 -9.886,4.67 -12.663,4.67"
           style="fill:#f36000;fill-opacity:1;fill-rule:nonzero;stroke:none"
           id="path3692" /><path
           d="m 375.248,160.821 c 1.994,-13.788 4.174,-23.669 6.474,-29.457 l 24.537,-16.194 15.723,64.378 c -0.016,1.595 -0.021,3.304 -0.016,5.146 l -51.052,1.774 c 1.575,-8.242 3.18,-17.642 4.334,-25.647"
           style="fill:#c4d719;fill-opacity:1;fill-rule:nonzero;stroke:none"
           id="path3694" /><path
           d="M 398.895,425.11 265.377,391.171 324.932,307.922 Z"
           style="fill:#f6aa00;fill-opacity:1;fill-rule:nonzero;stroke:none"
           id="path3696" /><path
           d="m 397.25,109.199 c 1.221,-2.674 2.162,-5.16 2.545,-6.967 0.928,-4.398 2.796,-7.476 6.221,-9.467 l 0.243,22.405 z"
           style="fill:#aeb12f;fill-opacity:1;fill-rule:nonzero;stroke:none"
           id="path3698" /><path
           d="m 393.977,115.632 c 1.173,-2.101 2.31,-4.325 3.273,-6.433 l 9.009,5.971 z"
           style="fill:#baad0c;fill-opacity:1;fill-rule:nonzero;stroke:none"
           id="path3700" /><path
           d="m 381.722,131.364 c 1.596,-4.018 3.252,-6.065 4.943,-6.069 1.267,-0.007 4.402,-4.453 7.312,-9.663 l 12.282,-0.462 z"
           style="fill:#cbbb01;fill-opacity:1;fill-rule:nonzero;stroke:none"
           id="path3702" /><path
           d="m 401.123,446.107 c -4.591,-2.54 -10.935,-3.759 -22.61,-5.658 -0.05,-0.009 -0.107,-0.017 -0.158,-0.026 l 20.54,-15.313 z"
           style="fill:#f77d00;fill-opacity:1;fill-rule:nonzero;stroke:none"
           id="path3704" /><path
           d="m 398.895,425.11 -20.54,15.313 c -5.625,-0.926 -19.558,-3.618 -31.152,-6.018 -19.926,-4.133 -22.647,-4.257 -43.039,-1.961 -6.248,0.704 -13.342,1.557 -19.615,2.349 l -19.172,-43.622 z"
           style="fill:#f68c00;fill-opacity:1;fill-rule:nonzero;stroke:none"
           id="path3706" /><path
           d="m 208.063,308.563 6.387,-8.857 c 2.831,0.995 7.647,0.305 15.377,-1.82 7.381,-2.031 23.549,-5.239 35.93,-7.126 26.036,-3.975 39.556,-6.541 52.09,-10.219 l 7.085,27.381 z"
           style="fill:#f39300;fill-opacity:1;fill-rule:nonzero;stroke:none"
           id="path3708" /><path
           d="m 324.932,307.922 -59.555,83.249 -57.314,-82.608 z"
           style="fill:#f79b00;fill-opacity:1;fill-rule:nonzero;stroke:none"
           id="path3710" /><path
           d="m 284.549,434.793 c -5.747,0.727 -10.807,1.402 -13.894,1.869 -12.926,1.942 -29.558,2.245 -46.893,1.158 l 41.615,-46.649 z"
           style="fill:#f56f00;fill-opacity:1;fill-rule:nonzero;stroke:none"
           id="path3712" /><path
           d="m 186.033,253.564 c 2.224,1.762 4.141,3.328 5.495,4.498 7.965,6.893 19.428,27.33 19.428,34.648 0,3.831 0.94,6.1 3.494,6.996 l -6.387,8.857 z"
           style="fill:#ed5d00;fill-opacity:1;fill-rule:nonzero;stroke:none"
           id="path3714" /><path
           d="m 265.377,391.171 -92.534,-9.606 35.22,-73.002 z"
           style="fill:#f78000;fill-opacity:1;fill-rule:nonzero;stroke:none"
           id="path3716" /><path
           d="m 265.377,391.171 -41.615,46.649 c -16.846,-1.055 -34.355,-3.424 -49.774,-6.88 l -1.145,-49.375 z"
           style="fill:#f56c00;fill-opacity:1;fill-rule:nonzero;stroke:none"
           id="path3718" /><path
           d="m 171.811,142.165 c 0,3.682 -1.616,5.524 -6.73,7.673 l 0.646,-13.733 c 5.293,0.795 6.084,2.428 6.084,6.06"
           style="fill:#cd4900;fill-opacity:1;fill-rule:nonzero;stroke:none"
           id="path3720" /><path
           d="m 172.843,381.565 1.145,49.375 c -4.515,-1.011 -8.852,-2.117 -12.939,-3.309 -15.001,-4.372 -31.059,-12.539 -42.916,-21.509 l -9.327,-13.991 z"
           style="fill:#f25a00;fill-opacity:1;fill-rule:nonzero;stroke:none"
           id="path3722" /><path
           d="M 172.843,381.565 98.56,322.65 208.063,308.563 Z"
           style="fill:#f76a00;fill-opacity:1;fill-rule:nonzero;stroke:none"
           id="path3724" /><path
           d="m 98.56,322.65 49.498,-97.517 c 0.968,1.011 1.933,1.877 2.877,2.559 3.407,2.467 12.237,8.838 19.618,14.167 4.977,3.587 10.885,8.067 15.48,11.705 l 22.03,54.999 z"
           style="fill:#f45b00;fill-opacity:1;fill-rule:nonzero;stroke:none"
           id="path3726" /><path
           d="m 98.326,217.186 c 3.253,-0.828 6.055,-7.326 15.005,-35.076 l 19.513,5.41 c -0.116,1.095 -0.18,2.136 -0.18,3.103 0,9.647 7.814,26.592 15.394,34.51 L 98.56,322.65 Z"
           style="fill:#ea2f00;fill-opacity:1;fill-rule:nonzero;stroke:none"
           id="path3728" /><path
           d="m 116.17,173.248 c 11.758,-36.899 12.979,-38.276 33.739,-37.932 7.571,0.126 12.551,0.298 15.818,0.789 l -0.646,13.733 c -0.02,0.009 -0.039,0.016 -0.059,0.025 -3.732,1.554 -8.863,2.835 -11.402,2.835 -2.537,0 -6.463,1.978 -8.722,4.4 -5.314,5.693 -10.989,20.381 -12.054,30.422 l -19.513,-5.41 c 0.884,-2.743 1.828,-5.688 2.839,-8.862"
           style="fill:#d32700;fill-opacity:1;fill-rule:nonzero;stroke:none"
           id="path3730" /><path
           d="M 108.806,392.131 98.56,322.65 l 74.283,58.915 z"
           style="fill:#f26000;fill-opacity:1;fill-rule:nonzero;stroke:none"
           id="path3732" /><path
           d="m 118.133,406.122 c -3.248,-2.457 -6.178,-4.974 -8.687,-7.489 l -0.64,-6.502 z"
           style="fill:#ee4500;fill-opacity:1;fill-rule:nonzero;stroke:none"
           id="path3734" /><path
           d="m 37.854,134.92 c -1.321,-7.08 -1.746,-14.659 -0.938,-16.837 2.366,-6.399 15.011,-11.769 27.245,-11.564 9.609,0.159 10.833,0.658 11.391,4.586 0.42,2.965 -0.38,4.405 -2.446,4.405 -1.689,0 -3.073,1.349 -3.073,3.005 0,1.649 -1.377,5.101 -3.061,7.675 -4.015,6.128 -5.123,18.697 -3.789,31.616 L 39.402,144.157 c -0.511,-3.347 -1.032,-6.469 -1.548,-9.237"
           style="fill:#c00300;fill-opacity:1;fill-rule:nonzero;stroke:none"
           id="path3736" /><path
           d="m 24.37,284.688 c -9.507,2.943 -17.795,4.836 -18.418,4.212 -2.024,-2.017 5.779,-8.911 16.955,-14.977 4.8,-2.605 9.333,-4.672 13.669,-6.206 l -11.509,16.759 c -0.232,0.071 -0.463,0.14 -0.697,0.212"
           style="fill:#da1400;fill-opacity:1;fill-rule:nonzero;stroke:none"
           id="path3738" /><path
           d="m 68.486,181.094 c 0.957,2.478 2.023,4.779 3.194,6.831 2.576,4.513 6.171,9.608 9.891,14.272 l -16.406,23.891 c -4.401,-4.519 -9.189,-8.922 -14.213,-13.033 -5.74,-4.7 -6.361,-6.23 -6.344,-15.658 0.006,-3.381 -0.239,-8.164 -0.664,-13.691 z"
           style="fill:#da1400;fill-opacity:1;fill-rule:nonzero;stroke:none"
           id="path3740" /><path
           d="m 97.511,217.284 c 0.277,0 0.548,-0.031 0.815,-0.098 L 98.56,322.65 87.489,321.219 C 86.032,306.236 84.752,302.9 80.6,296.122 69.763,278.437 55.019,275.321 25.067,284.476 l 11.509,-16.759 c 17.42,-6.161 31.65,-3.672 47.094,7.567 6.689,4.863 12.523,8.481 12.965,8.038 1.695,-1.695 -4.943,-19.438 -11.984,-32.03 -4.507,-8.056 -11.331,-16.829 -19.486,-25.204 l 16.406,-23.891 c 6.549,8.212 13.487,15.087 15.94,15.087"
           style="fill:#ea3e00;fill-opacity:1;fill-rule:nonzero;stroke:none"
           id="path3742" /><path
           d="m 105.367,394.213 c -1.036,-1.218 -2.004,-2.442 -2.909,-3.692 l 6.348,1.61 z"
           style="fill:#e14400;fill-opacity:1;fill-rule:nonzero;stroke:none"
           id="path3744" /><path
           d="m 109.446,398.633 c -0.218,-0.219 -0.439,-0.438 -0.651,-0.656 -1.219,-1.26 -2.359,-2.508 -3.428,-3.764 l 3.439,-2.082 z"
           style="fill:#e53900;fill-opacity:1;fill-rule:nonzero;stroke:none"
           id="path3746" /><path
           d="m 108.806,392.131 -6.348,-1.61 c -8.261,-11.395 -11.355,-24.86 -13.646,-53.775 -0.217,-2.742 -0.419,-5.251 -0.612,-7.555 l 10.36,-6.541 z"
           style="fill:#ed5600;fill-opacity:1;fill-rule:nonzero;stroke:none"
           id="path3748" /><path
           d="m 88.2,329.191 c -0.249,-2.983 -0.482,-5.622 -0.711,-7.972 l 11.071,1.431 z"
           style="fill:#e94f00;fill-opacity:1;fill-rule:nonzero;stroke:none"
           id="path3750" /><path
           d="m 39.402,144.157 23.781,13.649 c 0.839,8.13 2.645,16.397 5.303,23.288 l -24.542,2.612 c -0.914,-11.893 -2.662,-27.24 -4.542,-39.549"
           style="fill:#c70b00;fill-opacity:1;fill-rule:nonzero;stroke:none"
           id="path3752" /></g></g></g></svg>
